<svg width="41" height="41" viewBox="0 0 41 41" fill="none" xmlns="http://www.w3.org/2000/svg">
<circle cx="20.5" cy="20.5" r="20.5" fill="black"/>
<circle cx="20.5001" cy="20.4996" r="15.1852" fill="white"/>
<path d="M15.5116 25.277C16.276 26.2401 17.6987 26.2401 20.5439 26.2401H21.0035C23.8487 26.2401 25.2714 26.2401 26.0357 25.277M15.5116 25.277C14.7473 24.314 15.0094 22.8519 15.5338 19.9278C15.9067 17.8483 16.0931 16.8086 16.801 16.1943M15.5116 25.277C15.5116 25.277 15.5116 25.277 15.5116 25.277ZM26.0357 25.277C26.8001 24.314 26.5379 22.8519 26.0136 19.9278C25.6407 17.8483 25.4542 16.8086 24.7464 16.1943M26.0357 25.277C26.0357 25.277 26.0357 25.277 26.0357 25.277ZM24.7464 16.1943C24.0386 15.5801 23.0269 15.5801 21.0035 15.5801H20.5439C18.5205 15.5801 17.5088 15.5801 16.801 16.1943M24.7464 16.1943C24.7464 16.1943 24.7464 16.1943 24.7464 16.1943ZM16.801 16.1943C16.801 16.1943 16.801 16.1943 16.801 16.1943Z" stroke="black" stroke-width="1.5"/>
<path d="M19.1336 18.0396C19.3723 18.9951 20.0164 19.6796 20.7736 19.6796C21.5307 19.6796 22.1749 18.9951 22.4136 18.0396" stroke="black" stroke-width="1.5" stroke-linecap="round"/>
</svg>
